<svg xmlns="http://www.w3.org/2000/svg" width="1024" height="1024" viewBox="0 0 1024 1024">
  <rect x="100" y="100" width="824" height="824" rx="185" fill="#3b6ef5"/>
  <g transform="translate(271.7 270.0) scale(0.8698)" color="#ffffff"><g fill="currentColor"><path d="M306.79,350v-7.84l22.58-17.58v8.93l-10.29,7.29-6.9,5.1v.37l6.9,5,10.29,7.38v8.84Z"/><path d="M335.82,367.48v-8.84l10.29-7.38,6.9-5v-.37l-6.9-5.1-10.29-7.29v-8.93l22.58,17.58V350Z"/><path d="M194,344.67c0-13.81,5-20.52,12.89-20.52s12.89,6.77,12.89,20.52-5.09,20.8-12.89,20.8S194,358.54,194,344.67Zm19.82,0c0-11.42-2.87-15.59-6.93-15.59S200,333.25,200,344.67s2.87,15.87,6.93,15.87S213.86,356.21,213.86,344.67Z"/><path d="M227,359.62h8.72V331.89h-7.15v-3.95a24.61,24.61,0,0,0,8.67-3H242v34.71h7.8v5.14H227Z"/><path d="M321.4,462.05c16.17,13.55,25.71,30.28,30.71,49.63,1.06,4.06.69,8.66.16,12.91-.64,5.23-4.32,7.91-9.63,8-1.48,0-3,0-5.05,0,.5,7.92-1.75,15-8.13,19.19-4,2.67-9.57,4.86-14.19,4.46-10.45-.91-19.44-5.34-20.68-23.32H260.8c-.82,8.05-3.12,15.9-10.7,20.25-3.54,2-8.25,3.61-12.15,3.13-11-1.35-18.73-5.46-21.45-22.82-3.43-1-7.25-1.05-9.79-2.91-5.05-3.71-5.45-9.54-4.32-15.3,3.81-19.43,12.58-36.17,27.34-49.58.72-.65,1.33-1.42,2.22-2.38a9.61,9.61,0,0,0-2-1.55c-11-4.07-22.49-7.2-33-12.32-21.34-10.42-38.56-25.84-49.56-47.19-8.67-16.82-11-34.82-8.48-53.7,2-15.29,6.71-29.4,15.34-42.05,11.56-16.94,27.45-28.64,46.36-36.27,6-2.43,12.21-4.48,19.15-7L163.54,151.4c-4.67,6.14-8.06,11.12-12,15.64-8.15,9.39-16.79,18.18-29.73,20.93a17.74,17.74,0,0,1-19.06-8.71c-4.93-8.46-6.71-17.8-7.56-27.26-2.36-26.25,2.24-51.67,11-76.27,8.33-23.34,20.1-44.77,39.23-61.28,20.65-17.82,51.66-19.76,72.2-1.58,14.89,13.19,22.91,29.91,25.91,49.33,2.58,16.65,5.34,33.28,7.83,50,1.87,12.48,3.34,25,5.17,37.5s4,24.88,5.82,37.35c2.15,14.59,4.11,29.21,6.15,43.81,1,7.31,1.91,14.63,3.08,21.91.87,5.47,5.26,2.94,9,3.58,1.13-6.82,2.29-13.52,3.32-20.24q2.94-19.19,5.73-38.37c1.82-12.49,3.46-25,5.3-37.48,2.13-14.41,4.42-28.79,6.59-43.2,1.51-10,2.86-20.11,4.39-30.15,2.8-18.4,3.94-37.07,13.54-53.95S342.09,3.74,361.68.7a54.21,54.21,0,0,1,42.8,11.22C421.69,25.3,432.91,43,441.71,62.7A190.33,190.33,0,0,1,457,116.28c1.6,12.51.63,25.37.37,38.07a49.69,49.69,0,0,1-7.69,26.07c-5.1,8-14.28,10.22-23.3,6.29-12.56-5.46-21.4-15.18-29.49-25.74-2.19-2.85-4.23-5.8-7.07-9.72L333.51,262.53c5.19,1.78,9.47,3.22,13.72,4.72,22,7.75,40.42,20.65,53.62,40,8.11,11.91,12.74,25.38,14.6,39.79,1.93,14.92,1.69,29.57-4,43.75a98,98,0,0,1-18.48,30c-16.4,18-36.81,29.5-59.36,37.67C329.79,459.91,325.79,460.8,321.4,462.05ZM277.63,302.76c-24.8,0-49.6.11-74.39,0s-44.8,20.94-45.52,45.22c-.56,18.58,7.36,33.38,23.42,42.62,9.08,5.22,18.85,8.55,30.27,4,21.13-8.34,43.27-13.25,66.11-13.32a126.72,126.72,0,0,1,26.37,3c13.07,2.76,26,6.32,38.85,10,5.36,1.54,10.22,3,16.15,2,27.29-4.58,44.11-31.91,37.66-58.15-5.12-20.85-25.05-36.1-46-35.55C326.24,303.26,301.92,302.76,277.63,302.76Zm46.19,212.52,1.17-1.09-13.57-30.81-1.69.65a7.12,7.12,0,0,0,.19,1.75c3.51,8.92,7,17.86,10.67,26.7C321.08,513.66,322.71,514.36,323.82,515.28Zm-94-.44c5.1-2,15.31-24.9,13.52-31.18Z"/></g></g>
</svg>
